<svg width="1024" height="135" viewBox="0 0 1024 135" fill="none" xmlns="http://www.w3.org/2000/svg">
<path d="M136.359 45.3624V29.7323C136.359 26.7356 135.825 23.5038 134.785 20.037C133.746 16.5996 132.024 13.3678 129.648 10.4004C127.272 7.4037 124.184 4.93581 120.383 2.96736C116.553 0.969538 111.89 0 106.367 0H12.4719C10.6902 0 9.02726 0.293797 7.51281 0.940151C5.99837 1.55713 4.6621 2.43852 3.56338 3.55495C2.46467 4.70076 1.57381 6.02286 0.950214 7.52122C0.296926 9.01959 0 10.6355 0 12.3101V135H24.7359V24.4733H106.367C106.902 24.4733 107.436 24.5027 108.06 24.5615C108.654 24.6202 109.218 24.8259 109.752 25.1785C110.287 25.531 110.732 26.0599 111.089 26.765C111.445 27.4995 111.623 28.5571 111.623 29.938V45.3624C111.623 48.5647 111.118 51.4146 110.079 53.8825C109.069 56.3798 107.644 58.4951 105.773 60.2579C103.903 61.9913 101.675 63.4015 99.092 64.4298C96.5382 65.4581 93.6875 66.1045 90.5695 66.3689H34.6243V90.8422H52.4115L103.992 135H142.268L90.5695 90.8422C93.6281 90.8422 96.8945 90.4897 100.339 89.8139C103.784 89.1088 107.228 87.9924 110.614 86.4646C113.999 84.9369 117.265 82.9684 120.383 80.5887C123.472 78.2089 126.233 75.3297 128.609 71.9804C130.984 68.6017 132.855 64.7236 134.251 60.346C135.646 55.9391 136.359 50.9445 136.359 45.3624ZM334.068 135V12.3101C334.068 10.6355 333.741 9.01959 333.118 7.52122C332.464 6.02286 331.574 4.70076 330.445 3.55495C329.317 2.43852 327.98 1.55713 326.436 0.940151C324.922 0.293797 323.318 0 321.596 0H265.829C256 0 246.913 1.64527 238.628 4.96519C230.314 8.31448 223.098 12.9565 217.011 18.9206C210.923 24.8847 206.172 31.9946 202.727 40.2796C199.312 48.5647 197.59 57.6431 197.59 67.4853V135H222.356V101.86H309.332V135H334.068ZM222.356 77.3863V67.4853C222.356 60.6398 223.306 54.8226 225.236 50.0337C227.166 45.2155 229.631 41.2198 232.63 38.0174C235.6 34.815 238.866 32.3177 242.429 30.4962C245.963 28.6747 249.348 27.3232 252.555 26.4418C255.762 25.5604 258.583 25.0316 261.018 24.7965C263.453 24.5909 265.057 24.4733 265.829 24.4733H309.332V77.3863H222.356ZM537.746 56.4679V45.3624C537.746 42.3656 537.419 39.1338 536.706 35.7258C536.023 32.2884 534.895 28.9097 533.321 25.5604C531.777 22.1817 529.817 18.9793 527.441 15.8945C525.066 12.839 522.156 10.1066 518.77 7.75626C515.385 5.40587 511.466 3.52557 507.011 2.11535C502.587 0.705118 497.568 0 491.986 0H436.04C432.596 0 428.854 0.587592 424.816 1.82154C420.747 3.05549 416.976 5.02394 413.532 7.69749C410.057 10.4004 407.177 13.9554 404.861 18.3624C402.544 22.7399 401.386 28.0871 401.386 34.3449V135H426.152V34.3449C426.152 31.1426 426.983 28.704 428.706 27C430.428 25.3254 432.922 24.4733 436.219 24.4733H491.986C495.222 24.4733 498.073 24.9728 500.538 26.0305C503.032 27.0588 505.14 28.4984 506.892 30.2905C508.615 32.1121 510.01 34.3156 511.02 36.901C512.03 39.457 512.713 42.3069 513.01 45.3624V56.4679C513.01 59.6115 512.505 62.432 511.495 64.8999C510.486 67.3972 509.06 69.5125 507.219 71.2459C505.378 73.0087 503.181 74.4189 500.597 75.4472C498.043 76.4755 495.163 77.1219 491.986 77.3863H436.04V101.86H491.986C495.044 101.86 498.281 101.507 501.755 100.831C505.2 100.126 508.615 99.0392 512.03 97.5408C515.415 96.0131 518.652 94.074 521.77 91.6942C524.888 89.3145 527.62 86.4353 529.995 83.086C532.371 79.7073 534.271 75.8292 535.667 71.4516C537.063 67.0446 537.746 62.0794 537.746 56.4679ZM622.792 135V0H598.056V135H622.792ZM826.885 78.5027V56.4679C826.885 48.3297 825.43 40.7791 822.55 33.8455C819.669 26.9119 815.69 20.9478 810.612 15.9532C805.534 10.9587 799.506 7.05115 792.528 4.23069C785.55 1.41024 777.948 0 769.782 0H702.968C701.186 0 699.553 0.293797 698.039 0.940151C696.495 1.55713 695.188 2.43852 694.089 3.55495C692.961 4.70076 692.1 6.02286 691.476 7.52122C690.823 9.01959 690.496 10.6355 690.496 12.3101V122.661C690.496 124.423 690.823 126.069 691.476 127.567C692.1 129.065 692.961 130.358 694.089 131.474C695.188 132.561 696.495 133.443 698.039 134.06C699.553 134.677 701.186 135 702.968 135H769.782C777.948 135 785.55 133.59 792.528 130.769C799.506 127.949 805.534 124.041 810.612 119.047C815.69 114.052 819.669 108.118 822.55 101.213C825.43 94.309 826.885 86.7291 826.885 78.5027ZM802.119 56.4679V78.5027C802.119 83.3504 801.347 87.728 799.803 91.6355C798.259 95.5724 796.032 98.9217 793.181 101.713C790.331 104.504 786.916 106.678 782.966 108.206C778.987 109.763 774.592 110.527 769.782 110.527H715.262V24.4733H769.782C774.592 24.4733 778.987 25.2372 782.966 26.765C786.916 28.3221 790.331 30.4668 793.181 33.2579C796.032 36.0783 798.259 39.4276 799.803 43.3939C801.347 47.3602 802.119 51.7084 802.119 56.4679ZM1024 135V12.3101C1024 10.6355 1023.7 9.01959 1023.05 7.52122C1022.43 6.02286 1021.54 4.70076 1020.41 3.55495C1019.25 2.43852 1017.91 1.55713 1016.4 0.940151C1014.88 0.293797 1013.25 0 1011.53 0H955.791C945.932 0 936.875 1.64527 928.561 4.96519C920.246 8.31448 913.06 12.9565 906.972 18.9206C900.885 24.8847 896.104 31.9946 892.689 40.2796C889.274 48.5647 887.552 57.6431 887.552 67.4853V135H912.288V101.86H999.264V135H1024ZM912.288 77.3863V67.4853C912.288 60.6398 913.268 54.8226 915.198 50.0337C917.128 45.2155 919.593 41.2198 922.562 38.0174C925.561 34.815 928.828 32.3177 932.361 30.4962C935.925 28.6747 939.31 27.3232 942.517 26.4418C945.694 25.5604 948.545 25.0316 950.98 24.7965C953.415 24.5909 955.019 24.4733 955.791 24.4733H999.264V77.3863H912.288Z" fill="white"/>
</svg>
